<?xml version="1.0" encoding="utf-8"?>
<!-- Generator: Adobe Illustrator 27.3.1, SVG Export Plug-In . SVG Version: 6.00 Build 0)  -->
<svg version="1.1" id="Camada_2_00000031167572850598815300000013568121441844241578_"
	 xmlns="http://www.w3.org/2000/svg" xmlns:xlink="http://www.w3.org/1999/xlink" x="0px" y="0px" viewBox="0 0 379.1 146.2"
	 style="enable-background:new 0 0 379.1 146.2;" xml:space="preserve">
<style type="text/css">
	.st0{fill:#032B43;}
	.st1{fill:#FFBA08;}
</style>
<g id="Camada_1-2">
	<g>
		<path d="M115.7,56L115.7,56c1.6-4.8,2.6-9.5,3-14c0.4-4.5,0.2-8.9-0.7-12.9c-0.9-4.1-2.5-7.8-4.8-10.9c-2.3-3.1-5.6-5.7-9.7-7.6
			C99.4,8.7,94.6,7.5,89,7.1c-3-0.2-6.4,0-10.2,0.6c-3.7,0.6-6.7,1.1-8.9,1.6c0,0,0,0-0.1,0c0.4-0.6,0.9-1.1,1.3-1.5
			c0.9-0.9,1.4-2,1.7-3.3c0.3-1.6-0.4-3-2-3.9C69.9,0,67.5-1,65,2.3c-1.4,1.8-2.7,4.2-3.8,6.9c-0.8,2.1-1.2,3-1.4,3.5
			c-1.8,0.8-3.4,1.6-4.8,2.3c-1.5,0.8-3.3,1.8-5.3,2.9c-2,1.1-4,2.5-6.2,4.1c-2.1,1.5-4.1,3.2-6.1,4.9c-2,1.8-3.9,3.8-5.5,6.1
			s-3,4.7-3.9,7c-0.5,1.3-1,2.8-1.4,4.5c-1.4,7.2-1.1,14.2,0.8,20.7c1.1,3.9,2.5,6,4.3,6.6c0.9,0.3,2.3,0.3,3.9-1.1
			c0.9-0.8,2.7-2.9-0.1-6.3c-1.1-1.5-2-3.9-2.7-7.3c-0.7-3.4-0.8-6.5-0.3-9.2c0.3-2.1,1-4.3,2-6.4c1.1-2.1,2.4-4,3.9-5.7
			c1.5-1.7,3.2-3.3,5.1-4.9c1.8-1.5,3.6-2.9,5.3-3.9c1.7-1.1,3.3-2,4.8-2.9c0.7-0.4,1.4-0.8,2-1l-0.7,2.5
			c-7,21.3-12.7,49.9-17.2,85.1c-5.1,0.5-10.6,0.6-16.1,0.2c-5.8-0.5-10.2-1.7-13.2-3.6c-1.7-1.3-3-2-4-2.2c-0.9-0.1-2.2,0-3.3,1.3
			c-0.8,0.8-1.8,2.6,0,5.4c1.1,1.7,2.9,3.2,5.2,4.3c2,1,4.6,1.8,7.7,2.3c3,0.4,5.7,0.7,8,0.7c2.3,0.1,5.4,0,9.2-0.2
			c2.7-0.1,4.7-0.2,6.1-0.2v0.3c0,1,0,1.7,0.1,2.1c0,0.4,0.1,0.9,0.1,1.7c0,0.8,0.1,1.5,0.2,2c0,0.5,0.1,1.1,0.2,1.8
			c0.1,0.7,0.2,1.4,0.4,2c0.2,0.5,0.3,1.1,0.5,1.6c0.2,0.6,0.5,1.1,0.9,1.6c0.4,0.5,0.8,0.9,1.3,1.3c1,0.8,2.2,1.2,3.4,1.2
			c1,0,2.4-0.4,3.4-2.1c0.7-1.3,0.7-3.2,0-6l-0.5-8.8c10.1-2.2,19.3-5.8,27.4-10.6C83,102,91,94.9,98.3,86.2
			c3.7-4.4,7.2-9.4,10.3-14.8C111.7,65.8,114.1,60.7,115.7,56L115.7,56z M47.7,106.2c0.2-3.4,0.7-8.4,1.5-14.8
			c0.8-6.4,1.7-13,2.8-19.6c1-6.6,2-12.2,2.8-16.8c1.4-7.1,3.2-14.4,5.3-21.8c2.7-9.5,3.8-12.1,4.3-12.8v0c0.1-0.1,0.7-0.5,2.8-1.2
			c2-0.7,4.6-1.3,7.7-1.8c3.1-0.5,6.5-0.9,10-1c3.4-0.1,6.8,0.3,10.1,1.2c3.2,1,6.1,2.4,8.6,4.3c2.3,1.8,4.1,4.7,5.1,8.6
			c1.1,4,1.2,8.9,0.2,14.6c-1.4,9.2-5.3,18.6-11.5,27.8C91.1,82.2,83.2,90.3,73.9,97c-8.7,6.2-17.6,10.4-26.5,12.4L47.7,106.2
			L47.7,106.2z"/>
		<path d="M377.2,68.4L377.2,68.4c-0.9-0.2-1.9,0.1-2.8,0.9c-10.7,8.5-19.6,16.1-26.7,22.5c-1.2-3.7-2.5-5.8-3.9-6.7
			c-0.1-0.1-0.2-0.2-0.4-0.3c0.2-0.4,0.5-0.9,1-1.9c0.3-0.7,0.5-1,0.6-1.1c0.9-1.3,2.3-4.3,3.3-6.9c0.9-2.5,1.6-5.1,2-7.9v-0.1
			c0.1-1.1,0.1-3.7-1.8-5.3c-2.2-1.8-5.2-0.9-7.2-0.2c-0.6,0.2-2.4,0.8-6.5,3.8c-1.7,1.2-3.3,2.6-4.9,4
			c-8.1,6.8-13.5,11.2-16.1,13.1c-1.4,1-2.3,1.6-2.9,1.8c0-0.8,0.1-2,0.4-4c0.4-2.8,0.6-6.6-1.9-7.5c-1.9-0.9-4.4-0.1-7.6,2.5
			c-2.7,2.2-5.5,4.6-8.2,7.2c-3.5,3.3-4.5,3.4-4.6,3.4c0,0-0.1-0.1-0.1-0.3c0-0.4,0-1,0-1.6c0-0.5,0.2-1.2,0.4-1.8
			c0.3-0.8,0.6-1.6,1-2.4c0.8-1.7,1.9-3.3,3.4-4.9c1.5-1.6,3-2.9,4.6-4c1.6-1.1,3.2-1.9,4.7-2.4c1.4-0.5,2.6-0.6,3.6-0.4
			c0.9,0.2,1.4,0.6,1.9,1.4c0.4,0.7,0.9,1.4,1.3,1.9l0.1,0.1c1.1,1.1,2.2,1.7,3.4,1.6c0.7,0,1.7-0.3,2.6-1.3
			c1.1-1.2,2.5-3.7-0.9-7.2c-2.2-2.5-5.5-3.6-9.8-3.4c-4.1,0.2-8.3,2.2-12.4,5.8c-0.6,0.5-1.1,1.1-1.7,1.7c-2.1,1.9-4.2,3.8-6.3,5.8
			c-0.8,0.7-1.6,1.5-2.4,2.3c-2.3,2.2-4.9,4.8-8.2,7.5c-2,1.6-4.1,3.2-6.5,4.8c-0.5,0.4-0.9,0.6-1.2,0.8c0.3-1.2,1.1-3.3,2.9-7.1
			c5.4-11.4,5.3-12.1,5.2-12.8c-0.3-1.8-1.7-3-3.7-3.2c-1.5-0.2-3.2-0.1-4.9,0.3c-1.3,0.3-2.7,0.3-4,0c-1-0.2-1.5-0.7-1.7-1.6h0.3
			l0.2-0.1c1.2-0.4,2.8-1.4,3.5-4.1l0-0.3c0-1.3-0.4-2.4-1.2-3c-0.8-0.7-2-0.9-3.5-0.6c-1.7,0.4-3.2,1.9-4.6,4.5
			c-1.1,2-1.3,4-0.7,6.1c-0.6,0.5-2.2,2-6.9,6.5c-4.3,4.2-7.9,7.5-10.6,9.8c-2,1.6-4.1,3.2-6.5,4.8c-0.5,0.4-0.9,0.6-1.2,0.8
			c0.3-1.2,1.1-3.3,2.9-7.1c5.4-11.4,5.3-12.1,5.2-12.8c-0.3-1.8-1.7-3-3.7-3.2c-1.6-0.2-3.2-0.1-4.9,0.3c-1.3,0.3-2.7,0.3-4,0
			c-0.9-0.2-1.5-0.7-1.7-1.6h0.3l0.2-0.1c1.2-0.4,2.8-1.4,3.5-4.1l0-0.3c0-1.3-0.4-2.4-1.2-3c-0.8-0.7-2-0.9-3.5-0.6
			c-1.7,0.4-3.2,1.9-4.6,4.5c-1,1.9-1.2,3.8-0.8,5.7c-0.6,0.5-2.2,1.9-7,5.9c-3.9,3.3-6.9,5.8-9,7.4c-2,1.6-4.7,3.3-7.9,4.9
			c-5.5,2.8-9.3,3.1-11.2,0.9c-0.8-1-1.1-2.1-0.7-3.4c0.1-0.2,0.1-0.4,0.1-0.6c1.9,0.8,4.7,0.2,8.5-1.9c3.8-2,6.9-4.6,9.3-7.8
			c3.5-4.6,2.2-7.7,0.5-9.5c-2.5-2.6-6.5-2.2-11.8,1.1c-1.3,0.8-2.6,1.8-3.8,2.8c-0.1,0.1-0.3,0.2-0.4,0.3c-0.9,0.7-2.5,2-4.8,3.9
			c-2.3,1.9-4.2,3.4-5.6,4.6c-2.2,1.8-4,3-5.4,3.5c-1.3,0.5-3.2,0.6-5.6,0.4c-0.1,0-0.2,0-0.4-0.1c0.3-1.2,1.3-4.3,4.1-12.1
			c3.3-9.1,4.9-10.7,5.2-11c0.5-0.1,1-0.3,1.6-0.8c0.6-0.5,1.1-1.1,1.5-1.9c0.4-0.8,0.6-2-0.6-3.6c-1.1-1.4-2.2-2.1-3.4-2.2
			c-0.7-0.1-1.8,0.1-2.9,1.1c-1.2,1-3.5,4-8.3,17.1l-0.3,0.7c-0.1,0.1-0.2,0.1-0.2,0.2l-0.3,0.2c-1.7,1.4-3.7,3.3-6.1,5.7
			c-5.1,4.6-8.2,7.4-9.2,8.4c-7.4,6.4-11.2,7-13,6.4c-1.5-0.5-2.6-2.2-3.2-4.9c0.2-0.4,0.9-1.4,3.2-4c2.5-2.8,4.6-5.1,6.4-6.8
			c1.1-1.1,2.1-1.9,2.9-2.2c0.7-0.3,1-0.3,1.1-0.4c0.7,0.2,1.4,0.2,2.1,0c0.6-0.2,1.3-0.7,1.7-1.9c0.7-1.3,0.6-2.8-0.3-4
			c-0.9-1.2-2.1-1.8-3.5-1.8c-1.9,0-4.2,1.4-7.3,4.3c-2.7,2.6-5.2,5.2-7.3,7.5c-0.5,0.6-1,1.1-1.3,1.4c0-0.1,0-0.2-0.1-0.4
			c-0.2-1.6-0.3-3.4-0.3-5.2c0.1-2,0.4-2.6,0.5-2.8c1.2-0.9,1.6-2.2,1.3-3.7c-0.6-2.1-2.1-3.3-4.1-3.3l0,0c-1.7-0.1-4,0.7-4.8,5.3
			c-0.6,4,0.1,9.4,2.1,16.7c-3.2,4-6.2,8.1-9,12.2c-3.1,4.7-4.6,7.9-4.6,10l0,0.3c0.2,1.1,0.7,2,1.3,2.9l0.2,0.2
			c0.7,0.7,1.4,1.1,2.2,1.2c0.6,0.1,1.6,0,2.5-1.1c0.5-0.6,0.9-1.2,1.3-2.1c0.3-0.7,0.8-1.7,1.3-2.9c0.5-1.2,1.1-2.4,1.8-3.7
			c0.7-1.3,1.5-2.8,2.6-4.5c1-1.7,2.2-3.3,3.4-5l0.5-0.7c1,1.9,2.1,3.3,3.5,4.3c2,1.5,4.4,2,7,1.3c2.3-0.6,4.4-1.3,6.2-2.2
			c1.9-0.9,4.2-2.6,7-5.2c2.6-2.4,4.7-4.4,6.2-5.8c0.6-0.7,1.4-1.4,2.3-2.3c-1.5,5-2.9,9.8-3.9,14.4c-2.4,10.9-3.8,21.5-4,31.7
			c-0.3,14.1,1.7,17.4,3.4,18.6c1.8,1.3,3.9,1.4,5.8,0.1c4-2.8,6.8-10.4,8.6-23.3c1.9-13.6,1.6-24.4-0.9-32.3
			c-0.1-0.3-0.3-0.9-0.6-1.6c2.2,0.1,4.4-0.2,6.4-1c1.5-0.6,3.1-1.4,4.7-2.6c-0.2,1.4-0.2,2.8,0,4c0.6,3.3,2.6,5.6,6,6.9
			c1.7,0.5,3.4,0.8,5.1,0.9c1.8,0.1,3.5-0.2,5.3-0.8c1.6-0.5,3.2-1.1,4.6-1.7c1.6-0.6,3.3-1.6,5-2.9c1.7-1.3,3.1-2.3,4.4-3.3
			c1.2-0.9,2.7-2.2,4.5-3.9c1.7-1.6,3-2.8,4-3.8c1-0.9,2.3-2.3,3.9-3.9c1.1-1.2,2-2.1,2.6-2.8c1.8,1.2,4.4,1.9,8,1.9
			c0.5,0,1.1,0,1.6-0.1c-0.5,1-1,2.1-1.4,3.1c-0.4,0.9-0.9,2.1-1.7,3.5c-0.8,1.5-1.5,2.8-2,4c-0.6,1.3-1,2.4-1.2,3.4
			c-0.5,2.8-0.9,6.7,1.5,8.2c2.2,1.4,4.9,1.1,8.2-1c4.6-2.5,11.9-9.2,22.2-20.3c1.1-1.1,1.9-2,2.4-2.5c1.8,1.1,4.3,1.7,7.7,1.7
			c0.5,0,1.1,0,1.6-0.1c-0.5,1-1,2.1-1.4,3.1c-0.4,0.9-0.9,2.1-1.7,3.5c-0.8,1.4-1.5,2.8-2,4c-0.6,1.2-1,2.4-1.2,3.4
			c-0.5,2.8-0.9,6.7,1.5,8.2c2.2,1.4,5,1.1,8.2-1c3-1.6,7.1-5,12.5-10.2c-0.1,2.2,0.5,4,1.7,5.6c0.9,1.3,3,3.2,7,1.4
			c2.4-1.1,4.8-2.7,7.1-4.8c2.2-2,4.2-3.8,6-5.3c0.3-0.2,0.5-0.5,0.8-0.6c-0.1,1.1-0.3,2.2-0.5,3.4c-0.3,1.7,0,3.2,0.8,4.5
			c0.6,1,2,2.2,4.7,2.2c1.1,0,2.3-0.3,3.7-0.9c1.2-0.6,2.6-1.4,4.1-2.5c1.4-1,2.8-2,4-3c1.2-1,2.7-2.2,4.3-3.8
			c1.3-1.3,2.4-2.3,3.3-3.1l0.5-0.4c0.9-0.9,2.1-2,3.5-3.5c1.8-1.6,3.6-3.1,5.4-4.5c1.2-0.9,2.5-1.8,4.3-2.4
			c0.4-0.1,0.8-0.2,1.1-0.3c-0.1,0.9-0.7,2.9-2,5.8c-0.2,0.5-0.4,0.9-0.5,1.2c-2,5.2-4.1,8.9-6.2,11.1c-1,1.1-3.8,4.1-2,6.3
			c0.6,0.8,2.1,1.9,5.2,0.4c1-0.6,1.4-0.4,1.5-0.3c0.4,0.2,1.5,1.1,2.2,5c0.1,0.6,0,0.9-0.1,1.1c-0.2,0.3-0.9,1.3-3.9,4.5
			c-9.4,10.4-15.4,20.9-17.9,31.4c-0.6,2.7-2.5,10.9,2.3,12.9c0.6,0.2,1.2,0.4,1.8,0.4c3.4,0,7.5-3.8,12.6-11.6
			c7.5-11.4,11.4-23.1,11.5-34.9c1.3-1.1,2.6-2.2,4-3.5c1.5-1.4,3.2-3,5-4.7c1.8-1.7,3.3-3.1,4.4-4.1c2.2-2.1,7.6-6.9,16-14.4
			c0.7-0.7,1-1.5,1-2.4C379.1,69.5,378.4,68.6,377.2,68.4L377.2,68.4z M326.6,139c-0.4,0.4-0.8,0.6-1,0.9c0-0.9,0.1-2,0.3-3.3
			c0.3-1.7,0.7-3.4,1.2-5.1c2.9-8.6,7.7-16.7,14.2-24.3c0.2-0.3,0.5-0.5,0.6-0.7c-0.1,0.4-0.1,0.9-0.2,1.5c-0.9,5.2-3,11.2-6.1,17.5
			C332.6,131.9,329.5,136.4,326.6,139L326.6,139z M188.8,73.7c-0.9,0.4-1.9,0.8-2.9,1.1c-0.2,0.1-0.4,0.1-0.5,0.2
			c0.4-0.4,0.8-0.9,1.4-1.5c1.6-1.6,3.6-3.1,5.7-4.4c1.7-1,2.6-1.3,3-1.4c0,0.1-0.1,0.2-0.1,0.2C194.4,70,192.2,72,188.8,73.7
			L188.8,73.7z M158,117.5c-1,8.3-2.4,14.4-4.1,18.1c-0.1,0.2-0.1,0.3-0.2,0.5c-0.9-4-1-9.7-0.2-16.9c0.5-5.2,1.4-11.6,2.9-19.1
			c0.6-3.2,1.1-5.5,1.4-7.1c0.4,1.8,0.7,3.7,0.9,5.7C159.2,102.8,159,109.2,158,117.5L158,117.5z"/>
	</g>
</g>
<circle class="st0" cx="-439.5" cy="48" r="256"/>
<g>
	<polygon class="st1" points="-611.3,72.1 -499.7,112.6 -499.7,75.4 -566,52.6 -499.7,29.9 -499.7,-7.4 -611.3,33.1 	"/>
	<polygon class="st1" points="-496.4,151.1 -452.6,151.1 -380.4,-55.1 -424.2,-55.1 	"/>
	<polygon class="st1" points="-379.3,-7.4 -379.3,29.9 -312.9,52.6 -379.3,75.4 -379.3,112.6 -267.7,72.1 -267.7,33.1 	"/>
</g>
</svg>
